<svg width="512" height="512" xmlns="http://www.w3.org/2000/svg">

 <g>
  <title>background</title>
  <rect fill="none" id="canvas_background" height="402" width="582" y="-1" x="-1"/>
 </g>
 <g>
  <title>Layer 1</title>
  <g id="icomoon-ignore"/>
  <path fill="#4373b9" id="svg_1" d="m160,96c0,-53.02 42.981,-96 96,-96s96,42.98 96,96c0,53.019 -42.981,96 -96,96s-96,-42.981 -96,-96zm224.039,128l-17.712,0l-99.552,202.122l37.225,-186.122l-48,-48l-48,48l37.225,186.122l-99.551,-202.122l-17.712,0c-63.962,0 -63.962,42.993 -63.962,96l0,160l384,0l0,-160c0,-53.007 0,-96 -63.961,-96z"/>
 </g>
</svg>